<svg width="420" height="483" viewBox="0 0 420 483" fill="none" xmlns="http://www.w3.org/2000/svg">
<circle cx="317.138" cy="422.531" r="60.3616" fill="#C52929"/>
<path d="M274.312 364.295C179.394 396.4 228.853 271.345 81.0688 218.742C-0.210321 183.787 31.6577 95.2683 42.6899 86.439C48.0126 81.4525 105.343 9.80943 219.407 34.3112C263.562 48.0506 277.294 131.978 196.255 106.281C129.225 72.8795 63.9065 151.048 187.969 176.848C238.69 187.396 325.025 350.327 274.312 364.295Z" fill="#17832B"/>
<path d="M324.385 338.077C315.372 314.03 354.065 62.8679 360.945 54.1823C383.4 5.18844 415.533 68.3581 415.533 68.3581C415.533 68.3581 373.699 323.911 361.942 344.045C355.468 354.018 331.596 357.314 324.385 338.077Z" fill="#17832B"/>
</svg>
